<svg xmlns="http://www.w3.org/2000/svg" width="1200" height="630" viewBox="0 0 1200 630" role="img" aria-labelledby="title desc">
  <title id="title">Feature Thumbnail</title>
  <desc id="desc">Thumbnail using the site palette and pixel cat icon.</desc>

  <defs>
    <linearGradient id="bgGrad" x1="0" y1="0" x2="1" y2="1">
      <stop offset="0%" stop-color="#F7F4F0" />
      <stop offset="100%" stop-color="#EDE9E3" />
    </linearGradient>
    <filter id="softShadow" x="-20%" y="-20%" width="140%" height="140%">
      <feDropShadow dx="0" dy="8" stdDeviation="14" flood-color="#1A1714" flood-opacity="0.12" />
    </filter>
  </defs>

  <rect width="1200" height="630" fill="url(#bgGrad)" />
  <rect x="60" y="60" width="1080" height="510" rx="26" fill="#F7F4F0" stroke="#DDD8D0" filter="url(#softShadow)" />

  <circle cx="1045" cy="155" r="72" fill="#C4836A" opacity="0.16" />
  <circle cx="160" cy="500" r="92" fill="#C4836A" opacity="0.12" />

  <g transform="translate(130,130) scale(12)" shape-rendering="crispEdges">
    <rect x="1" y="1" width="2" height="1" fill="#F4922A"/>
    <rect x="1" y="2" width="3" height="1" fill="#F4922A"/>
    <rect x="12" y="1" width="2" height="1" fill="#F4922A"/>
    <rect x="11" y="2" width="3" height="1" fill="#F4922A"/>
    <rect x="1" y="3" width="13" height="1" fill="#F4922A"/>
    <rect x="0" y="4" width="15" height="2" fill="#F4922A"/>
    <rect x="5" y="3" width="1" height="3" fill="#C96B1A"/>
    <rect x="7" y="3" width="1" height="3" fill="#C96B1A"/>
    <rect x="9" y="3" width="1" height="3" fill="#C96B1A"/>
    <rect x="0" y="6" width="4" height="2" fill="#F4922A"/>
    <rect x="6" y="6" width="4" height="2" fill="#F4922A"/>
    <rect x="12" y="6" width="3" height="2" fill="#F4922A"/>
    <rect x="4" y="6" width="2" height="2" fill="#2D1F14"/>
    <rect x="10" y="6" width="2" height="2" fill="#2D1F14"/>
    <rect x="0" y="8" width="15" height="1" fill="#F4922A"/>
    <rect x="0" y="9" width="7" height="1" fill="#F4922A"/>
    <rect x="8" y="9" width="7" height="1" fill="#F4922A"/>
    <rect x="0" y="10" width="15" height="1" fill="#F4922A"/>
    <rect x="7" y="9" width="1" height="1" fill="#E8617A"/>
    <rect x="1" y="11" width="13" height="1" fill="#F4922A"/>
    <rect x="2" y="12" width="11" height="1" fill="#F4922A"/>
  </g>

  <text x="370" y="220" fill="#8C8378" font-size="24" font-family="Arial" letter-spacing="2">FEATURE</text>
  <text x="370" y="305" fill="#1A1714" font-size="68" font-weight="600" font-family="Arial">Tech Ops Build</text>
  <text x="370" y="360" fill="#8C8378" font-size="30" font-family="Arial">Systems • Automation • Execution</text>

  <rect x="370" y="405" width="300" height="54" rx="10" fill="#C4836A" />
  <text x="520" y="440" fill="#F7F4F0" font-size="24" text-anchor="middle" font-family="Arial">maetse.com</text>
</svg>
